<svg width="150" height="151" viewBox="0 0 150 151" fill="none" xmlns="http://www.w3.org/2000/svg">
<path d="M48.2516 83.8926V105.114V117.301C50.9853 113.08 55.906 113.169 58.3727 115.756L74.6861 132.915L90.9995 115.756C93.4598 113.169 98.3869 113.08 101.121 117.301V83.8926L74.6925 111.694L48.2643 83.8926H48.2516Z" fill="url(#paint0_linear_24_13299)"/>
<path d="M41.6208 98.4363V76.8207L10.469 44.0859V124.547C10.469 128.584 7.19485 131.858 3.15784 131.858H32.4024C28.3654 131.858 25.0912 128.584 25.0912 124.547V81.0676L41.6208 98.4363Z" fill="url(#paint1_linear_24_13299)"/>
<path d="M107.739 98.4363V76.8207L138.891 44.0859V44.1241V65.7015V124.547C138.891 128.584 142.165 131.858 146.202 131.858H133.169H129.99H116.957C120.994 131.858 124.268 128.584 124.268 124.547V81.0676L107.739 98.4363Z" fill="url(#paint2_linear_24_13299)"/>
<path fill-rule="evenodd" clip-rule="evenodd" d="M80.2299 53.522C76.4917 58.678 75.7542 65.9637 74.9468 71.2722H74.4128C73.5037 65.3025 72.6835 56.8089 67.5657 51.6847C62.448 46.5606 53.9543 45.7532 47.9783 44.844V44.5707C55.8934 44.5707 61.2464 42.7333 64.4887 41.1376C67.6802 39.5673 70.3122 36.8908 72.461 34.3542C74.1203 32.3897 75.1884 30.5397 75.6716 28.9248C73.6817 31.2453 71.7299 33.4577 69.1297 35.6193C72.8679 30.4634 73.6054 23.1777 74.4128 17.8691H74.9468C75.8559 23.8388 76.6761 32.3325 81.7938 37.4566C86.918 42.5808 95.4053 43.3882 101.381 44.2973V44.5707C93.4662 44.5707 88.1132 46.408 84.8709 48.0037C81.6794 49.574 79.0474 52.2505 76.8986 54.7872C75.2393 56.7517 74.1712 58.6017 73.688 60.2165C75.6779 57.896 77.6297 55.6836 80.2299 53.522Z" fill="url(#paint3_linear_24_13299)"/>
<defs>
<linearGradient id="paint0_linear_24_13299" x1="74.6861" y1="133.121" x2="74.6861" y2="87.6281" gradientUnits="userSpaceOnUse">
<stop stop-color="#12BBBB"/>
<stop offset="1" stop-color="#5AD78B"/>
</linearGradient>
<linearGradient id="paint1_linear_24_13299" x1="22.3893" y1="132.226" x2="22.3893" y2="50.774" gradientUnits="userSpaceOnUse">
<stop stop-color="#12BBBB"/>
<stop offset="1" stop-color="#5AD78B"/>
</linearGradient>
<linearGradient id="paint2_linear_24_13299" x1="126.97" y1="132.226" x2="126.97" y2="50.774" gradientUnits="userSpaceOnUse">
<stop stop-color="#12BBBB"/>
<stop offset="1" stop-color="#5AD78B"/>
</linearGradient>
<linearGradient id="paint3_linear_24_13299" x1="74.6798" y1="71.4965" x2="74.6798" y2="21.9384" gradientUnits="userSpaceOnUse">
<stop stop-color="#12BBBB"/>
<stop offset="1" stop-color="#5AD78B"/>
</linearGradient>
</defs>
</svg>
