<svg width="60" height="60" viewBox="0 0 60 60" fill="none" xmlns="http://www.w3.org/2000/svg">
<path d="M19.3007 33.3555V41.844V46.7189C20.3942 45.0304 22.3624 45.066 23.3491 46.101L29.8745 52.9646L36.3998 46.101C37.384 45.066 39.3548 45.0304 40.4483 46.7189V33.3555L29.877 44.476L19.3057 33.3555H19.3007Z" fill="url(#paint0_linear_121_65)"/>
<path d="M16.6484 39.1737V30.5275L4.18764 17.4336V49.6178C4.18764 51.2326 2.87799 52.5423 1.26318 52.5423H12.961C11.3462 52.5423 10.0365 51.2326 10.0365 49.6178V32.2262L16.6484 39.1737Z" fill="url(#paint1_linear_121_65)"/>
<path d="M43.0956 39.1737V30.5275L55.5563 17.4336V17.4489V26.0798V49.6178C55.5563 51.2326 56.8659 52.5423 58.4807 52.5423H53.2676H51.9961H46.7829C48.3977 52.5423 49.7074 51.2326 49.7074 49.6178V32.2262L43.0956 39.1737Z" fill="url(#paint2_linear_121_65)"/>
<path fill-rule="evenodd" clip-rule="evenodd" d="M32.0921 21.2084C30.5968 23.2708 30.3018 26.1851 29.9788 28.3085H29.7652C29.4016 25.9206 29.0735 22.5232 27.0264 20.4735C24.9793 18.4238 21.5818 18.1009 19.1914 17.7372V17.6279C22.3574 17.6279 24.4987 16.8929 25.7956 16.2547C27.0722 15.6265 28.125 14.5559 28.9845 13.5413C29.6482 12.7555 30.0755 12.0155 30.2687 11.3695C29.4728 12.2977 28.6921 13.1827 27.652 14.0473C29.1473 11.985 29.4423 9.07067 29.7652 6.94727H29.9788C30.3425 9.33515 30.6705 12.7326 32.7176 14.7823C34.7673 16.8319 38.1622 17.1549 40.5526 17.5185V17.6279C37.3866 17.6279 35.2454 18.3628 33.9485 19.0011C32.6719 19.6292 31.6191 20.6998 30.7595 21.7145C30.0958 22.5003 29.6686 23.2403 29.4753 23.8862C30.2713 22.958 31.052 22.073 32.0921 21.2084Z" fill="url(#paint3_linear_121_65)"/>
<defs>
<linearGradient id="paint0_linear_121_65" x1="29.8745" y1="53.0469" x2="29.8745" y2="34.8497" gradientUnits="userSpaceOnUse">
<stop stop-color="#12BBBB"/>
<stop offset="1" stop-color="#5AD78B"/>
</linearGradient>
<linearGradient id="paint1_linear_121_65" x1="8.95577" y1="52.6898" x2="8.95577" y2="20.1088" gradientUnits="userSpaceOnUse">
<stop stop-color="#12BBBB"/>
<stop offset="1" stop-color="#5AD78B"/>
</linearGradient>
<linearGradient id="paint2_linear_121_65" x1="50.7882" y1="52.6898" x2="50.7882" y2="20.1088" gradientUnits="userSpaceOnUse">
<stop stop-color="#12BBBB"/>
<stop offset="1" stop-color="#5AD78B"/>
</linearGradient>
<linearGradient id="paint3_linear_121_65" x1="29.872" y1="28.3982" x2="29.872" y2="8.57496" gradientUnits="userSpaceOnUse">
<stop stop-color="#12BBBB"/>
<stop offset="1" stop-color="#5AD78B"/>
</linearGradient>
</defs>
</svg>
