<svg width="65" height="64" viewBox="0 0 65 64" fill="none" xmlns="http://www.w3.org/2000/svg">
<path d="M12.3334 23.4405C11.36 25.5205 10.3467 27.1071 11.6267 29.8271C15 37.0538 27.68 36.6538 28.3334 29.6138L28.84 24.1205C28.8579 23.8346 28.7833 23.5506 28.6272 23.3104C28.4711 23.0703 28.2419 22.8868 27.9734 22.7871C20.24 19.9205 21.44 25.2271 13.92 22.7871C13.621 22.6919 13.2979 22.7051 13.0076 22.8246C12.7174 22.9442 12.4786 23.1622 12.3334 23.4405Z" fill="#39CAA1"/>
<path d="M53.0933 33.8127C54.3466 31.1461 53.3332 29.5194 52.3732 27.4394C51.4132 25.3594 49.1599 28.7727 44.2266 26.7327C42.5732 26.0394 40.7199 25.2527 36.6933 26.7327C36.4247 26.8324 36.1955 27.0159 36.0394 27.2561C35.8833 27.4962 35.8087 27.7802 35.8266 28.0661L36.3332 33.6127C36.9732 40.5994 49.6666 41.1327 53.0933 33.8127Z" fill="#39CAA1"/>
<path d="M55.6399 52.0939L51.9999 53.0672L49.0666 42.1872C55.6266 39.7739 59.5066 33.2539 56.8133 27.5205L50.5599 14.1872C50.4506 13.8808 50.2331 13.6248 49.9482 13.4677C49.6633 13.3105 49.3308 13.2629 49.0133 13.3339L33.4666 17.4672L33.6666 15.3072C33.696 14.993 33.613 14.6785 33.4323 14.4197C33.2517 14.1609 32.9851 13.9746 32.6799 13.8939L15.6533 9.33387C15.3504 9.25517 15.0295 9.28551 14.7467 9.41958C14.4639 9.55365 14.2374 9.7829 14.1066 10.0672L7.85326 23.4005C5.10659 29.2939 9.18659 35.7472 15.5999 38.0672L12.6666 49.0672L9.02659 48.0939C8.6899 48.0154 8.3359 48.0708 8.03927 48.2484C7.74264 48.4259 7.52657 48.7118 7.43663 49.0456C7.34669 49.3794 7.38992 49.7351 7.5572 50.0376C7.72448 50.3401 8.00273 50.5659 8.33326 50.6672L18.1866 53.3339C18.5402 53.424 18.9152 53.37 19.229 53.1838C19.5428 52.9975 19.7698 52.6942 19.8599 52.3405C19.9501 51.9869 19.8961 51.612 19.7098 51.2981C19.5235 50.9843 19.2202 50.7574 18.8666 50.6672L15.2399 49.7072C15.5599 48.5339 18.1333 39.0405 18.1866 38.8139C25.3733 40.0139 30.8799 36.2405 32.1066 31.2805C32.4133 34.6405 32.3733 37.9472 36.4799 40.8405C39.4204 42.7967 43.0168 43.5064 46.4799 42.8139C46.4799 42.9872 46.9333 44.4672 49.4266 53.7072L45.7999 54.6672C45.4463 54.7132 45.1254 54.8977 44.9079 55.1803C44.6903 55.4628 44.594 55.8202 44.6399 56.1739C44.6859 56.5275 44.8705 56.8484 45.153 57.0659C45.4356 57.2835 45.793 57.3798 46.1466 57.3339C46.4933 57.3339 53.3599 55.4672 56.3333 54.6672C56.6638 54.5659 56.942 54.3401 57.1093 54.0376C57.2766 53.735 57.3198 53.3794 57.2299 53.0456C57.1399 52.7118 56.9239 52.4259 56.6272 52.2484C56.3306 52.0708 55.9766 52.0154 55.6399 52.0939ZM29.6666 29.7472C29.2666 34.2405 23.9333 37.7472 17.5866 36.0005C12.1599 34.5605 8.05326 29.3339 10.2933 24.6139L16.0666 12.2405L30.9199 16.2405L29.6666 29.7472ZM38.0133 38.6672C37.1785 38.1209 36.4752 37.3963 35.9541 36.5456C35.4331 35.6948 35.1072 34.7391 34.9999 33.7472L33.7466 20.1872L48.5999 16.1872L54.3733 28.5605C58.0133 36.3205 45.6666 44.0005 38.0133 38.6672Z" fill="#39CAA1"/>
<path d="M28.7199 11.6142C28.971 11.8653 29.3115 12.0064 29.6666 12.0064C30.0217 12.0064 30.3622 11.8653 30.6133 11.6142C30.8643 11.3632 31.0054 11.0226 31.0054 10.6676C31.0054 10.3125 30.8643 9.97197 30.6133 9.7209L27.9466 7.05423C27.8223 6.92991 27.6747 6.8313 27.5123 6.76402C27.3498 6.69674 27.1757 6.66211 26.9999 6.66211C26.6449 6.66211 26.3043 6.80316 26.0533 7.05423C25.8022 7.3053 25.6611 7.64583 25.6611 8.0009C25.6611 8.35597 25.8022 8.69649 26.0533 8.94757L28.7199 11.6142Z" fill="#39CAA1"/>
<path d="M34.9999 9.33333V5.33333C34.9999 4.97971 34.8594 4.64057 34.6094 4.39052C34.3593 4.14048 34.0202 4 33.6666 4C33.313 4 32.9738 4.14048 32.7238 4.39052C32.4737 4.64057 32.3333 4.97971 32.3333 5.33333V9.33333C32.3333 9.68696 32.4737 10.0261 32.7238 10.2761C32.9738 10.5262 33.313 10.6667 33.6666 10.6667C34.0202 10.6667 34.3593 10.5262 34.6094 10.2761C34.8594 10.0261 34.9999 9.68696 34.9999 9.33333Z" fill="#39CAA1"/>
<path d="M37.6665 12.0009C38.3865 12.0009 38.4265 11.8009 41.2799 8.94757C41.5309 8.69649 41.672 8.35597 41.672 8.0009C41.672 7.64583 41.5309 7.3053 41.2799 7.05423C41.0288 6.80316 40.6883 6.66211 40.3332 6.66211C39.9781 6.66211 39.6376 6.80316 39.3865 7.05423L36.7199 9.7209C36.5318 9.90739 36.4036 10.1457 36.3515 10.4053C36.2994 10.665 36.3258 10.9343 36.4274 11.1789C36.5289 11.4235 36.701 11.6323 36.9217 11.7787C37.1424 11.9251 37.4017 12.0024 37.6665 12.0009Z" fill="#39CAA1"/>
</svg>
