<svg width="65" height="64" viewBox="0 0 65 64" fill="none" xmlns="http://www.w3.org/2000/svg">
<path d="M23.1067 41.52C20 43.96 18 47.7467 18 52V56H10C7.78667 56 6 54.2133 6 52V49.3333C6 44.1733 10.1733 40 15.3333 40H18C19.8933 40 21.64 40.56 23.1067 41.52Z" fill="#39CAA1"/>
<path d="M48.6666 40C51.9803 40 54.6666 37.3137 54.6666 34C54.6666 30.6863 51.9803 28 48.6666 28C45.3529 28 42.6666 30.6863 42.6666 34C42.6666 37.3137 45.3529 40 48.6666 40Z" fill="#39CAA1"/>
<path d="M16.6666 40C19.9803 40 22.6666 37.3137 22.6666 34C22.6666 30.6863 19.9803 28 16.6666 28C13.3529 28 10.6666 30.6863 10.6666 34C10.6666 37.3137 13.3529 40 16.6666 40Z" fill="#39CAA1"/>
<path d="M59.3334 49.3333V52C59.3334 54.2133 57.5467 56 55.3334 56H47.3334V52C47.3334 47.7467 45.3334 43.96 42.2267 41.52C43.6934 40.56 45.44 40 47.3334 40H50C55.16 40 59.3334 44.1733 59.3334 49.3333Z" fill="#39CAA1"/>
<path d="M32.6666 41.3327C36.7167 41.3327 39.9999 38.0494 39.9999 33.9993C39.9999 29.9493 36.7167 26.666 32.6666 26.666C28.6165 26.666 25.3333 29.9493 25.3333 33.9993C25.3333 38.0494 28.6165 41.3327 32.6666 41.3327Z" fill="#39CAA1"/>
<path d="M34 41.334H31.3333C25.452 41.334 20.6666 46.1193 20.6666 52.0007V56.0007C20.6666 58.206 22.4613 60.0007 24.6666 60.0007H40.6666C42.872 60.0007 44.6666 58.206 44.6666 56.0007V52.0007C44.6666 46.1193 39.8813 41.334 34 41.334Z" fill="#39CAA1"/>
<path d="M51.9999 22.2457L48.7826 23.3897C47.8693 23.7137 46.9159 23.0217 46.9426 22.0524L47.0359 18.6391L44.9533 15.9324C44.3626 15.1644 44.7266 14.0431 45.6559 13.7684L48.9319 12.8031L50.8626 9.98572C51.4106 9.18705 52.5893 9.18705 53.1373 9.98572L55.0679 12.8031L58.3439 13.7684C59.2733 14.0417 59.6373 15.1644 59.0466 15.9324L56.9639 18.6391L57.0573 22.0524C57.0839 23.0204 56.1292 23.7137 55.2172 23.3897L51.9999 22.2457Z" fill="#39CAA1"/>
<path d="M13.3333 22.2457L10.116 23.3897C9.20263 23.7137 8.24929 23.0217 8.27596 22.0524L8.36929 18.6391L6.28663 15.9324C5.69596 15.1644 6.05996 14.0431 6.98929 13.7684L10.2653 12.8031L12.196 9.98572C12.744 9.18705 13.9226 9.18705 14.4706 9.98572L16.4013 12.8031L19.6773 13.7684C20.6066 14.0417 20.9706 15.1644 20.38 15.9324L18.2973 18.6391L18.3906 22.0524C18.4173 23.0204 17.4626 23.7137 16.5506 23.3897L13.3333 22.2457Z" fill="#39CAA1"/>
<path d="M32.6666 19.245L28.852 20.601C27.7693 20.9864 26.6386 20.1637 26.6706 19.0157L26.7813 14.969L24.312 11.7597C23.612 10.849 24.044 9.51971 25.1453 9.19438L29.0293 8.04905L31.3186 4.70905C31.968 3.76105 33.3666 3.76105 34.016 4.70905L36.3053 8.04905L40.1893 9.19438C41.2906 9.51971 41.7226 10.849 41.0226 11.7597L38.5533 14.969L38.664 19.0157C38.696 20.1637 37.564 20.9864 36.4826 20.601L32.6666 19.245Z" fill="#39CAA1"/>
</svg>
