<svg width="64" height="64" viewBox="0 0 64 64" fill="none" xmlns="http://www.w3.org/2000/svg">
<path d="M22.3638 48.8451C22.3332 49.1495 22.3595 49.4674 22.4704 49.7824C22.7414 50.5419 23.3771 51.1605 24.1302 51.3938C24.8299 51.6149 25.5261 51.4677 25.7373 51.238L27.1972 49.6714C27.6196 49.2199 27.7263 48.4981 27.4781 47.7977C26.8672 46.6272 26.0487 46.2048 25.0006 46.0156L22.3638 48.8451Z" fill="#39CAA1"/>
<path d="M20.411 41.0118L17.8595 43.7481C17.3411 44.312 17.1925 45.1789 17.4819 46.0095C17.7891 46.887 18.5223 47.6009 19.3998 47.8676C20.2304 48.1165 21.0638 47.9231 21.5857 47.3677L23.9481 44.834C24.47 44.2715 24.6151 43.4089 24.3257 42.5784C24.0185 41.6966 23.281 40.9855 22.4078 40.7202C21.7109 40.4976 20.8931 40.4891 20.411 41.0118Z" fill="#39CAA1"/>
<path d="M15.3529 36.51L12.997 39.0394C12.4779 39.599 12.3328 40.4687 12.6194 41.3021C12.9266 42.1768 13.6597 42.8908 14.5372 43.1574C15.3664 43.4099 16.2083 43.2129 16.4707 42.9349L19.0862 40.1281C19.6082 39.5642 19.7532 38.6973 19.4638 37.8682C19.1552 36.9878 18.422 36.2767 17.5445 36.0129C16.7374 35.7498 15.8443 35.9837 15.3529 36.51Z" fill="#39CAA1"/>
<path d="M10.7442 31.5235L8.13304 34.3317C7.61108 34.8942 7.46601 35.7567 7.75544 36.5831C8.05979 37.4677 8.79721 38.1788 9.67473 38.4455C10.5039 38.6929 11.3444 38.5009 11.604 38.2193L14.2223 35.4126V35.4097C14.7442 34.8543 14.8893 33.9903 14.5999 33.1612C14.2969 32.2766 13.5595 31.5655 12.682 31.3016C12.0114 31.0705 11.2001 31.0307 10.7442 31.5235Z" fill="#39CAA1"/>
<path d="M44.6443 14.7754C42.9554 15.7197 40.608 15.889 38.3218 16.0533C36.5924 16.1713 34.8082 16.2965 33.5261 16.7701L26.3972 19.4005C26.3488 19.4197 26.2997 19.431 26.2485 19.4381C25.9044 19.4922 25.5858 19.5384 25.2999 19.5782C23.5641 19.8229 23.3636 19.8975 23.1637 20.4117C22.9817 20.8867 23.1815 21.5715 23.675 22.1532C24.0775 22.631 25.6526 24.1229 28.8932 23.3557L32.9529 22.8195C35.2263 22.5265 37.0489 24.0085 38.5045 25.2045L49.4222 33.9384L49.4308 33.9341C51.589 33.031 53.8375 31.8563 55.749 29.5537L44.6443 14.7754Z" fill="#39CAA1"/>
<path d="M29.622 14.2459C28.9749 14.3056 28.2332 14.3874 27.4553 14.4684C23.1523 14.9278 20.7665 15.1084 19.5527 14.8837L8.38184 29.4238C8.79286 29.8128 9.13348 30.2167 9.40797 30.654C10.3417 29.6983 11.7525 29.357 13.1264 29.7723C14.4746 30.179 15.6003 31.272 16.0711 32.6281C16.2709 33.2019 16.3335 33.7907 16.2823 34.3547C16.8334 34.2771 17.4158 34.3091 17.9889 34.4841C19.3337 34.888 20.4636 35.9838 20.9308 37.3399C21.1335 37.9109 21.1975 38.4983 21.1491 39.0622C21.7002 38.9847 22.2826 39.0174 22.8558 39.1959C24.1977 39.6026 25.3226 40.6956 25.7934 42.0446C26.0892 42.9001 26.1006 43.7804 25.8602 44.5698C25.9975 44.5961 26.1383 44.6295 26.2784 44.6736C27.4823 45.0469 28.5049 46.0361 28.945 47.2556C29.3646 48.4361 29.1825 49.6763 28.4935 50.5666L30.4753 52.1516C30.9603 52.5363 31.6672 52.5783 32.3271 52.2583C33.0425 51.9113 33.5829 51.2066 33.7422 50.4179C33.809 50.0887 33.787 49.7694 33.7116 49.4736L31.1978 47.4626C30.8601 47.1916 30.8003 46.6917 31.0641 46.3447C31.3308 46.0005 31.8201 45.9365 32.16 46.2074L35.1822 48.6295C35.4823 48.8699 36.342 48.9338 37.1306 48.5626C37.9598 48.1666 38.5863 47.3502 38.7598 46.4393C38.9262 45.5781 38.6595 44.7433 38.0665 44.2654L35.3329 42.078C34.9923 41.8071 34.9326 41.3058 35.1993 40.963C35.4631 40.6146 35.9552 40.5506 36.2922 40.8258L40.2659 44.0037C40.8633 44.4787 41.7216 44.5442 42.5145 44.1744C43.3365 43.7811 43.963 42.9662 44.1408 42.0453C44.3072 41.1842 44.0405 40.3522 43.441 39.87L39.4659 36.6963C39.1253 36.4226 39.0656 35.9226 39.3322 35.5728C39.5989 35.23 40.0881 35.1703 40.4295 35.4405C40.4295 35.4405 46.4654 40.2668 46.4697 40.2668C46.7697 40.5029 47.6252 40.5698 48.4103 40.1943C49.2409 39.8067 49.8631 38.9918 50.0437 38.0738C50.2073 37.2112 49.9406 36.3735 49.344 35.8999L37.5303 26.4457C36.1749 25.3342 34.7747 24.1829 33.1484 24.4012L29.1705 24.9203C26.4889 25.5646 23.9594 24.9275 22.4967 23.198C21.6149 22.1563 21.3148 20.8677 21.7109 19.8316C22.2663 18.3945 23.3301 18.2459 25.0858 17.9984C25.3482 17.965 25.6305 17.9237 25.9413 17.8747L32.9969 15.272C33.4556 15.1013 33.9633 14.9833 34.4889 14.8787C32.6748 14.1769 31.36 14.1349 29.622 14.2459Z" fill="#39CAA1"/>
<path d="M14.2891 11.491C13.0041 11.3936 11.8308 12.3621 10.1419 14.5616L5.82263 20.1879C4.26032 22.2174 3.67508 23.4797 3.8045 24.5492C3.90832 25.4281 4.51988 26.2907 5.12645 26.7771L7.17516 28.4133L18.3005 13.933L16.8605 12.7803C15.8706 11.9909 15.06 11.5508 14.2891 11.491Z" fill="#39CAA1"/>
<path d="M49.9641 11.4755C49.1932 11.5238 48.3755 11.9548 47.3778 12.7327L45.9221 13.862L56.8931 28.4604L58.3111 27.3574C59.5378 26.406 60.1635 25.5548 60.278 24.6765C60.4195 23.6099 59.8528 22.3377 58.3154 20.2819L54.0665 14.6015C52.411 12.3793 51.2526 11.393 49.9641 11.4755Z" fill="#39CAA1"/>
</svg>
